<svg xmlns="http://www.w3.org/2000/svg" width="200" height="150" viewBox="0 0 200 150"><path fill="#fff" d="M0 0h200v150h-200z"/><g fill="#F18260"><path d="M80.7 116.9c-1.3 0-2.2-1.1-2.2-3 0-1.8 1-2.9 2.3-2.9.6 0 1.1.3 1.5.7l1.1-1.3c-.6-.6-1.6-1.2-2.7-1.2-2.4 0-4.4 1.8-4.4 4.8 0 3.1 1.9 4.7 4.3 4.7 1.1 0 2.1-.5 2.9-1.3l-1.1-1.2c-.4.4-1 .7-1.7.7zM88.9 111.4c-.9 0-1.6.5-2.1 1l.1-1.2v-2.4h-2.1v9.8h2.1v-4.7c.4-.4.8-.7 1.3-.7.6 0 .9.3.9 1.3v4h1.9v-4.3c0-1.8-.6-2.8-2.1-2.8zM94.6 112.8l-.2-1.2h-1.7v6.9h2.1v-4c.4-.9 1-1.3 1.5-1.3.3 0 .5 0 .8.1l.3-1.8c-.2-.1-.4-.1-.8-.1-.7 0-1.5.4-2 1.4zM101.2 111.4c-1.8 0-3.4 1.3-3.4 3.6s1.6 3.6 3.4 3.6c1.8 0 3.4-1.3 3.4-3.6s-1.7-3.6-3.4-3.6zm0 5.6c-.9 0-1.3-.8-1.3-2s.4-2 1.3-2c.8 0 1.3.8 1.3 2-.1 1.2-.5 2-1.3 2zM114 111.4c-.9 0-1.6.5-2.2 1.2-.4-.7-.9-1.2-1.9-1.2-.9 0-1.5.5-2.1 1.1h-.1l-.1-.9h-1.7v6.9h2.1v-4.7c.4-.4.8-.7 1.2-.7.6 0 .9.3.9 1.3v4h2.1v-4.7c.4-.4.8-.7 1.2-.7.6 0 .9.3.9 1.3v4h2.1v-4.3c-.2-1.6-.9-2.6-2.4-2.6zM120.8 111.4c-1.7 0-3.3 1.4-3.3 3.6 0 2.3 1.5 3.6 3.5 3.6.8 0 1.8-.3 2.5-.8l-.7-1.2c-.5.3-1 .5-1.5.5-.9 0-1.6-.5-1.8-1.5h4.2c0-.2.1-.5.1-.9 0-1.9-1-3.3-3-3.3zm-1.3 2.9c.1-.9.7-1.4 1.3-1.4.8 0 1.2.6 1.2 1.4h-2.5zM100.2 27c-19.9 0-36 16.1-36 36s16.1 36 36 36 36-16.1 36-36-16.1-36-36-36zm0 5c10.6 0 20 5.4 25.6 13.6h-25.6c-7.8 0-14.5 5.2-16.7 12.3l-7.5-14.3c5.8-7.1 14.5-11.6 24.2-11.6zm12.5 31c0 6.9-5.6 12.4-12.4 12.4-4.7 0-8.8-2.6-10.9-6.5l-.1-.2c-.9-1.7-1.4-3.7-1.4-5.8 0-6.9 5.6-12.4 12.4-12.4s12.4 5.6 12.4 12.5zm-43.5 0c0-5.3 1.3-10.3 3.7-14.7l11.9 22.9s0 .1.1.1l.1.2c3 5.3 8.7 8.9 15.2 8.9 1.5 0 2.9-.2 4.3-.6l-8.4 13.8c-15.1-1.9-26.9-14.9-26.9-30.6zm32.6 31l13.6-22.3c1.5-2.6 2.3-5.5 2.3-8.6 0-4.9-2-9.3-5.2-12.4h16.2c1.7 3.8 2.6 8 2.6 12.4-.1 16.5-13.1 30-29.5 30.9z"/></g></svg>