<?xml version="1.0" encoding="utf-8"?>
<!-- Generator: Adobe Illustrator 17.1.0, SVG Export Plug-In . SVG Version: 6.00 Build 0)  -->
<!DOCTYPE svg PUBLIC "-//W3C//DTD SVG 1.1//EN" "http://www.w3.org/Graphics/SVG/1.1/DTD/svg11.dtd">
<svg version="1.1" id="Layer_1" xmlns="http://www.w3.org/2000/svg" xmlns:xlink="http://www.w3.org/1999/xlink" x="0px" y="0px"
	 width="200px" height="150px" viewBox="0 0 200 150" enable-background="new 0 0 200 150" xml:space="preserve">
<rect fill="#FFFFFF" width="200" height="150"/>
<g>
	<path fill="#F18260" d="M80.7,116.9c-1.3,0-2.2-1.1-2.2-3c0-1.8,1-2.9,2.3-2.9c0.6,0,1.1,0.3,1.5,0.7l1.1-1.3
		c-0.6-0.6-1.6-1.2-2.7-1.2c-2.4,0-4.4,1.8-4.4,4.8c0,3.1,1.9,4.7,4.3,4.7c1.1,0,2.1-0.5,2.9-1.3l-1.1-1.2
		C82,116.6,81.4,116.9,80.7,116.9z"/>
	<path fill="#F18260" d="M88.9,111.4c-0.9,0-1.6,0.5-2.1,1l0.1-1.2v-2.4h-2.1v9.8h2.1v-4.7c0.4-0.4,0.8-0.7,1.3-0.7
		c0.6,0,0.9,0.3,0.9,1.3v4H91v-4.3C91,112.4,90.4,111.4,88.9,111.4z"/>
	<path fill="#F18260" d="M94.6,112.8L94.6,112.8l-0.2-1.2h-1.7v6.9h2.1v-4c0.4-0.9,1-1.3,1.5-1.3c0.3,0,0.5,0,0.8,0.1l0.3-1.8
		c-0.2-0.1-0.4-0.1-0.8-0.1C95.9,111.4,95.1,111.8,94.6,112.8z"/>
	<path fill="#F18260" d="M101.2,111.4c-1.8,0-3.4,1.3-3.4,3.6s1.6,3.6,3.4,3.6c1.8,0,3.4-1.3,3.4-3.6S102.9,111.4,101.2,111.4z
		 M101.2,117c-0.9,0-1.3-0.8-1.3-2c0-1.2,0.4-2,1.3-2c0.8,0,1.3,0.8,1.3,2C102.4,116.2,102,117,101.2,117z"/>
	<path fill="#F18260" d="M114,111.4c-0.9,0-1.6,0.5-2.2,1.2c-0.4-0.7-0.9-1.2-1.9-1.2c-0.9,0-1.5,0.5-2.1,1.1h-0.1l-0.1-0.9h-1.7
		v6.9h2.1v-4.7c0.4-0.4,0.8-0.7,1.2-0.7c0.6,0,0.9,0.3,0.9,1.3v4h2.1v-4.7c0.4-0.4,0.8-0.7,1.2-0.7c0.6,0,0.9,0.3,0.9,1.3v4h2.1
		v-4.3C116.2,112.4,115.5,111.4,114,111.4z"/>
	<path fill="#F18260" d="M120.8,111.4c-1.7,0-3.3,1.4-3.3,3.6c0,2.3,1.5,3.6,3.5,3.6c0.8,0,1.8-0.3,2.5-0.8l-0.7-1.2
		c-0.5,0.3-1,0.5-1.5,0.5c-0.9,0-1.6-0.5-1.8-1.5h4.2c0-0.2,0.1-0.5,0.1-0.9C123.8,112.8,122.8,111.4,120.8,111.4z M119.5,114.3
		c0.1-0.9,0.7-1.4,1.3-1.4c0.8,0,1.2,0.6,1.2,1.4H119.5z"/>
	<path fill="#F18260" d="M100.2,27c-19.9,0-36,16.1-36,36s16.1,36,36,36s36-16.1,36-36S120.1,27,100.2,27z M100.2,32
		c10.6,0,20,5.4,25.6,13.6h-25.6c-7.8,0-14.5,5.2-16.7,12.3l-7.5-14.3C81.8,36.5,90.5,32,100.2,32z M112.7,63
		c0,6.9-5.6,12.4-12.4,12.4c-4.7,0-8.8-2.6-10.9-6.5l-0.1-0.2c-0.9-1.7-1.4-3.7-1.4-5.8c0-6.9,5.6-12.4,12.4-12.4
		S112.7,56.1,112.7,63z M69.2,63c0-5.3,1.3-10.3,3.7-14.7l11.9,22.9c0,0,0,0.1,0.1,0.1l0.1,0.2l0,0c3,5.3,8.7,8.9,15.2,8.9
		c1.5,0,2.9-0.2,4.3-0.6l-8.4,13.8C81,91.7,69.2,78.7,69.2,63z M101.8,94l13.6-22.3l0,0c1.5-2.6,2.3-5.5,2.3-8.6
		c0-4.9-2-9.3-5.2-12.4h16.2c1.7,3.8,2.6,8,2.6,12.4C131.2,79.6,118.2,93.1,101.8,94z"/>
</g>
</svg>
