<?xml version="1.0" encoding="utf-8"?>
<!-- Generator: Adobe Illustrator 17.0.0, SVG Export Plug-In . SVG Version: 6.00 Build 0)  -->
<!DOCTYPE svg PUBLIC "-//W3C//DTD SVG 1.1//EN" "http://www.w3.org/Graphics/SVG/1.1/DTD/svg11.dtd">
<svg version="1.1" id="Layer_1" xmlns="http://www.w3.org/2000/svg" xmlns:xlink="http://www.w3.org/1999/xlink" x="0px" y="0px"
	 width="200px" height="150px" viewBox="0 0 200 150" enable-background="new 0 0 200 150" xml:space="preserve">
<rect fill="#FFFFFF" width="200" height="150"/>
<g>
	<path fill="#F18260" d="M80.676,116.889c-1.331,0-2.213-1.092-2.213-2.969c0-1.836,0.995-2.941,2.269-2.941
		c0.645,0,1.079,0.266,1.541,0.686l1.134-1.274c-0.616-0.63-1.569-1.19-2.703-1.19c-2.354,0-4.356,1.765-4.356,4.791
		c0,3.066,1.933,4.678,4.3,4.678c1.135,0,2.143-0.462,2.899-1.345l-1.134-1.247C81.965,116.566,81.433,116.889,80.676,116.889z"/>
	<path fill="#F18260" d="M88.852,111.385c-0.938,0-1.625,0.49-2.143,0.952l0.098-1.247v-2.409h-2.059v9.819h2.059v-4.692
		c0.448-0.435,0.771-0.673,1.289-0.673c0.588,0,0.854,0.309,0.854,1.316v4.049h2.059v-4.314
		C91.009,112.449,90.364,111.385,88.852,111.385z"/>
	<path fill="#F18260" d="M94.619,112.771h-0.056l-0.14-1.219h-1.681v6.947h2.059v-4.034c0.364-0.938,1.008-1.274,1.527-1.274
		c0.294,0,0.504,0.042,0.756,0.111l0.336-1.778c-0.196-0.084-0.434-0.14-0.826-0.14C95.879,111.385,95.123,111.832,94.619,112.771z"
		/>
	<path fill="#F18260" d="M101.157,111.385c-1.765,0-3.39,1.33-3.39,3.642s1.625,3.642,3.39,3.642c1.751,0,3.376-1.33,3.376-3.642
		S102.908,111.385,101.157,111.385z M101.157,117.001c-0.854,0-1.274-0.771-1.274-1.975c0-1.205,0.42-1.976,1.274-1.976
		c0.841,0,1.274,0.771,1.274,1.976C102.432,116.23,101.998,117.001,101.157,117.001z"/>
	<path fill="#F18260" d="M114.025,111.385c-0.924,0-1.568,0.531-2.185,1.162c-0.351-0.742-0.938-1.162-1.919-1.162
		c-0.91,0-1.527,0.49-2.102,1.064h-0.056l-0.14-0.896h-1.682v6.947h2.06v-4.692c0.435-0.448,0.841-0.673,1.177-0.673
		c0.588,0,0.854,0.309,0.854,1.316v4.049h2.06v-4.692c0.448-0.448,0.841-0.673,1.19-0.673c0.589,0,0.855,0.309,0.855,1.316v4.049
		h2.059v-4.314C116.197,112.449,115.525,111.385,114.025,111.385z"/>
	<path fill="#F18260" d="M120.812,111.385c-1.666,0-3.277,1.387-3.277,3.642c0,2.297,1.527,3.642,3.516,3.642
		c0.826,0,1.751-0.294,2.465-0.784l-0.686-1.247c-0.504,0.309-0.98,0.463-1.499,0.463c-0.925,0-1.625-0.463-1.808-1.514h4.161
		c0.042-0.168,0.084-0.504,0.084-0.868C123.769,112.827,122.788,111.385,120.812,111.385z M119.51,114.312
		c0.141-0.925,0.701-1.358,1.346-1.358c0.826,0,1.162,0.561,1.162,1.358H119.51z"/>
	<path fill="#F18260" d="M100.238,27c-19.881,0-35.998,16.118-35.998,36s16.117,36,35.998,36s35.998-16.118,35.998-36
		S120.119,27,100.238,27z M100.238,32c10.627,0,20.019,5.378,25.606,13.552h-25.606c-7.845,0-14.493,5.206-16.681,12.344
		l-7.454-14.317C81.789,36.525,90.493,32,100.238,32z M112.686,63c0,6.863-5.584,12.447-12.447,12.447
		c-4.694,0-8.787-2.614-10.907-6.461l-0.099-0.191c-0.916-1.733-1.44-3.703-1.44-5.795c0-6.864,5.583-12.448,12.447-12.448
		S112.686,56.136,112.686,63z M69.241,63c0-5.304,1.341-10.3,3.698-14.67l11.916,22.886c0.024,0.044,0.046,0.09,0.07,0.134
		l0.082,0.157l0.01-0.005c2.989,5.33,8.688,8.945,15.221,8.945c1.481,0,2.912-0.206,4.286-0.555l-8.409,13.825
		C80.966,91.693,69.241,78.695,69.241,63z M101.819,93.96l13.57-22.308l-0.015-0.009c1.463-2.551,2.312-5.497,2.312-8.643
		c0-4.872-2.013-9.279-5.244-12.448h16.177c1.679,3.813,2.618,8.022,2.618,12.448C131.236,79.563,118.18,93.134,101.819,93.96z"/>
</g>
</svg>
