<?xml version="1.0" encoding="utf-8"?>
<!-- Generator: Adobe Illustrator 17.0.0, SVG Export Plug-In . SVG Version: 6.00 Build 0)  -->
<!DOCTYPE svg PUBLIC "-//W3C//DTD SVG 1.1//EN" "http://www.w3.org/Graphics/SVG/1.1/DTD/svg11.dtd">
<svg version="1.1" id="Layer_1" xmlns="http://www.w3.org/2000/svg" xmlns:xlink="http://www.w3.org/1999/xlink" x="0px" y="0px"
	 width="16px" height="16px" viewBox="0.5 16.5 16 16" enable-background="new 0.5 16.5 16 16" xml:space="preserve">
<path fill-rule="evenodd" clip-rule="evenodd" fill="#F18260" d="M8.499,16.5c-4.417,0-7.999,3.582-7.999,8
	c0,3.534,2.292,6.533,5.471,7.591c0.4,0.073,0.546-0.174,0.546-0.386c0-0.19-0.007-0.693-0.011-1.361
	c-2.225,0.483-2.695-1.072-2.695-1.072c-0.364-0.924-0.888-1.17-0.888-1.17c-0.726-0.496,0.055-0.486,0.055-0.486
	c0.803,0.057,1.225,0.824,1.225,0.824c0.714,1.223,1.872,0.87,2.328,0.665c0.073-0.517,0.279-0.87,0.508-1.069
	c-1.776-0.202-3.644-0.888-3.644-3.954c0-0.873,0.312-1.587,0.823-2.147c-0.082-0.202-0.357-1.016,0.078-2.117
	c0,0,0.672-0.215,2.2,0.82c0.638-0.177,1.322-0.266,2.003-0.269c0.679,0.003,1.364,0.092,2.003,0.269
	c1.527-1.035,2.198-0.82,2.198-0.82c0.436,1.101,0.162,1.915,0.08,2.117c0.513,0.559,0.822,1.273,0.822,2.147
	c0,3.073-1.87,3.75-3.653,3.948c0.287,0.247,0.543,0.735,0.543,1.481c0,1.069-0.01,1.932-0.01,2.195c0,0.214,0.144,0.463,0.55,0.385
	c3.176-1.06,5.466-4.056,5.466-7.59C16.5,20.082,12.918,16.5,8.499,16.5z"/>
</svg>
