<?xml version="1.0" encoding="utf-8"?>
<!-- Generator: Adobe Illustrator 17.0.0, SVG Export Plug-In . SVG Version: 6.00 Build 0)  -->
<!DOCTYPE svg PUBLIC "-//W3C//DTD SVG 1.1//EN" "http://www.w3.org/Graphics/SVG/1.1/DTD/svg11.dtd">
<svg version="1.1" id="Layer_1" xmlns="http://www.w3.org/2000/svg" xmlns:xlink="http://www.w3.org/1999/xlink" x="0px" y="0px"
	 width="16px" height="16px" viewBox="2.5 18.5 16 16" enable-background="new 2.5 18.5 16 16" xml:space="preserve">
<polygon fill="#F18260" points="2.5,29.484 2.5,31.516 5.469,34.5 7.484,34.5 13.5,28.5 13.5,26.5 11.5,24.5 10.5,25.5 11.5,26.5 
	12.5,27.5 6.5,33.5 3.5,30.5 6.5,27.5 5.5,26.5 "/>
<polygon fill="#F18260" points="18.5,23.516 18.5,21.484 15.531,18.5 13.516,18.5 7.5,24.5 7.5,26.5 9.5,28.5 10.5,27.5 9.5,26.5 
	8.5,25.5 14.5,19.5 17.5,22.5 14.5,25.5 15.5,26.5 "/>
</svg>
