<?xml version="1.0" encoding="utf-8"?>
<!-- Generator: Adobe Illustrator 17.0.0, SVG Export Plug-In . SVG Version: 6.00 Build 0)  -->
<!DOCTYPE svg PUBLIC "-//W3C//DTD SVG 1.1//EN" "http://www.w3.org/Graphics/SVG/1.1/DTD/svg11.dtd">
<svg version="1.1" id="Layer_1" xmlns="http://www.w3.org/2000/svg" xmlns:xlink="http://www.w3.org/1999/xlink" x="0px" y="0px"
	 width="16px" height="16px" viewBox="0 0 16 16" enable-background="new 0 0 16 16" xml:space="preserve">
<g>
	<path fill="#F18260" d="M15.004,8.825v0.723c0,3-2.455,5.456-5.457,5.456H5.456c-3,0-5.456-2.455-5.456-5.456V5.456
		C0,2.456,2.455,0,5.456,0h3.561l0.027,1.091c-1.309,0.314-2.264,0.9-2.973,1.637H4.092c-0.75,0-1.364,0.614-1.364,1.364v6.82
		c0,0.75,0.614,1.363,1.364,1.363h6.82c0.75,0,1.364-0.613,1.364-1.363L15.004,8.825z M11.103,3.315c0,0-4.57,0.068-5.333,4.542
		c1.472-1.841,5.32-1.582,5.32-1.582v2.851L16,4.706l-4.897-4.337V3.315z"/>
</g>
</svg>
