<?xml version="1.0" encoding="utf-8"?>
<!-- Generator: Adobe Illustrator 17.0.0, SVG Export Plug-In . SVG Version: 6.00 Build 0)  -->
<!DOCTYPE svg PUBLIC "-//W3C//DTD SVG 1.1//EN" "http://www.w3.org/Graphics/SVG/1.1/DTD/svg11.dtd">
<svg version="1.1" id="Layer_1" xmlns="http://www.w3.org/2000/svg" xmlns:xlink="http://www.w3.org/1999/xlink" x="0px" y="0px"
	 width="16px" height="16px" viewBox="0.5 16.5 16 16" enable-background="new 0.5 16.5 16 16" xml:space="preserve">
<path fill="#F18260" d="M16.5,25.633v-2.016l-2.055-0.685c-0.123-0.439-0.289-0.862-0.503-1.255l1.017-2.033l-1.425-1.425
	l-2.039,1.019c-0.348-0.187-0.717-0.342-1.101-0.46L9.634,16.5H7.619l-0.76,2.28c-0.333,0.102-0.651,0.235-0.956,0.39l-2.257-1.128
	L2.22,19.467l1.099,2.197c-0.155,0.284-0.283,0.584-0.392,0.893L0.5,23.367v2.016l2.296,0.765c0.092,0.34,0.213,0.667,0.36,0.98
	l-1.114,2.227l1.425,1.425l2.061-1.031c0.344,0.206,0.709,0.378,1.092,0.513l0.746,2.237h2.016l0.69-2.071
	c0.447-0.11,0.876-0.269,1.278-0.473l2.005,1.002l1.425-1.425l-0.95-1.901c0.241-0.407,0.438-0.841,0.58-1.301L16.5,25.633z
	 M8.626,27.587c-1.67,0-3.024-1.354-3.024-3.024c0-1.67,1.354-3.024,3.024-3.024s3.024,1.354,3.024,3.024
	C11.65,26.233,10.297,27.587,8.626,27.587z"/>
</svg>
