<?xml version="1.0" encoding="utf-8"?>
<!-- Generator: Adobe Illustrator 17.1.0, SVG Export Plug-In . SVG Version: 6.00 Build 0)  -->
<!DOCTYPE svg PUBLIC "-//W3C//DTD SVG 1.1//EN" "http://www.w3.org/Graphics/SVG/1.1/DTD/svg11.dtd">
<svg version="1.1" id="Layer_1" xmlns="http://www.w3.org/2000/svg" xmlns:xlink="http://www.w3.org/1999/xlink" x="0px" y="0px"
	 width="200px" height="150px" viewBox="0 0 200 150" enable-background="new 0 0 200 150" xml:space="preserve">
<g>
	<rect fill="#FFFFFF" width="200" height="150"/>
	<g>
		<path fill="#F18260" d="M88,82h3.3c1.9,0,3.5,0.7,3.5,2.9c0,2.1-1.6,3.1-3.5,3.1H90V91h-2V82z M91.2,86.3c1.1,0,1.6-0.5,1.6-1.4
			c0-0.9-0.6-1.3-1.6-1.3H90v2.7H91.2z"/>
		<path fill="#F18260" d="M96,82h2.4c2.6,0,4.3,1.4,4.3,4.5s-1.7,4.5-4.2,4.5H96V82z M98.3,89.4c1.4,0,2.4-0.7,2.4-2.9
			c0-2.2-1-2.8-2.4-2.8H98v5.7L98.3,89.4L98.3,89.4z"/>
		<path fill="#F18260" d="M105,82h6v2h-4v2h3v2h-3v3h-2V82z"/>
	</g>
	<path fill="#F18260" d="M106,38H70v72h60V62L106,38z M123,62h-17V45L123,62z M124,104H76V44h24v24h24V104z"/>
</g>
</svg>
