<svg xmlns="http://www.w3.org/2000/svg" width="200" height="150" viewBox="0 0 200 150"><path fill="#fff" d="M0 0h200v150h-200z"/><g fill="#F18260"><path d="M88 82h3.3c1.9 0 3.5.7 3.5 2.9 0 2.1-1.6 3.1-3.5 3.1h-1.3v3h-2v-9zm3.2 4.3c1.1 0 1.6-.5 1.6-1.4 0-.9-.6-1.3-1.6-1.3h-1.2v2.7h1.2zM96 82h2.4c2.6 0 4.3 1.4 4.3 4.5s-1.7 4.5-4.2 4.5h-2.5v-9zm2.3 7.4c1.4 0 2.4-.7 2.4-2.9s-1-2.8-2.4-2.8h-.3v5.7h.3zM105 82h6v2h-4v2h3v2h-3v3h-2v-9z"/></g><path fill="#F18260" d="M106 38h-36v72h60v-48l-24-24zm17 24h-17v-17l17 17zm1 42h-48v-60h24v24h24v36z"/></svg>