<?xml version="1.0" encoding="utf-8"?>
<!-- Generator: Adobe Illustrator 17.0.0, SVG Export Plug-In . SVG Version: 6.00 Build 0)  -->
<!DOCTYPE svg PUBLIC "-//W3C//DTD SVG 1.1//EN" "http://www.w3.org/Graphics/SVG/1.1/DTD/svg11.dtd">
<svg version="1.1" id="Layer_1" xmlns="http://www.w3.org/2000/svg" xmlns:xlink="http://www.w3.org/1999/xlink" x="0px" y="0px"
	 width="200px" height="150px" viewBox="92.5 83.5 200 150" enable-background="new 92.5 83.5 200 150" xml:space="preserve">
<rect x="92.5" y="83.5" fill="#FFFFFF" width="200" height="150"/>
<g>
	<path fill="#F18260" d="M180.5,165.503h3.285c1.946,0,3.52,0.718,3.52,2.899c0,2.111-1.615,3.051-3.52,3.051H182.5v3.051h-2
		V165.503z M183.661,169.837c1.118,0,1.643-0.498,1.643-1.436c0-0.939-0.566-1.284-1.643-1.284H182.5v2.72
		C182.5,169.837,183.661,169.837,183.661,169.837z"/>
	<path fill="#F18260" d="M188.5,165.503h2.443c2.609,0,4.334,1.367,4.334,4.459c0,3.092-1.725,4.541-4.223,4.541H188.5V165.503z
		 M190.833,172.86c1.408,0,2.36-0.746,2.36-2.899c0-2.154-0.952-2.816-2.36-2.816H190.5v5.714h0.333V172.86z"/>
	<path fill="#F18260" d="M197.5,165.503h6v1.997h-4v2h3v2h-3v3.002h-2V165.503z"/>
</g>
<path fill="#F18260" d="M198.5,121.5h-36v72h60v-48L198.5,121.5z M215.5,145.5h-17v-17L215.5,145.5z M216.5,187.5h-48v-60h24v24h24
	V187.5z"/>
</svg>
