<?xml version="1.0" encoding="utf-8"?>
<!-- Generator: Adobe Illustrator 17.1.0, SVG Export Plug-In . SVG Version: 6.00 Build 0)  -->
<!DOCTYPE svg PUBLIC "-//W3C//DTD SVG 1.1//EN" "http://www.w3.org/Graphics/SVG/1.1/DTD/svg11.dtd">
<svg version="1.1" id="Layer_1" xmlns="http://www.w3.org/2000/svg" xmlns:xlink="http://www.w3.org/1999/xlink" x="0px" y="0px"
	 width="32px" height="32px" viewBox="0 0 32 32" enable-background="new 0 0 32 32" xml:space="preserve">
<rect fill="#FFFFFF" width="32" height="32"/>
<path fill="#F18260" d="M17.5,8c-3.6,0-6.5,2.9-6.5,6.5c0,1.3,0.4,2.5,1,3.5l-4,4l2,2l4-4c1,0.6,2.2,1,3.5,1c3.6,0,6.5-2.9,6.5-6.5
	S21.1,8,17.5,8z M17.5,19C15,19,13,17,13,14.5s2-4.5,4.5-4.5s4.5,2,4.5,4.5S20,19,17.5,19z"/>
</svg>
