<?xml version="1.0" encoding="utf-8"?>
<!-- Generator: Adobe Illustrator 17.0.0, SVG Export Plug-In . SVG Version: 6.00 Build 0)  -->
<!DOCTYPE svg PUBLIC "-//W3C//DTD SVG 1.1//EN" "http://www.w3.org/Graphics/SVG/1.1/DTD/svg11.dtd">
<svg version="1.1" id="Layer_1" xmlns="http://www.w3.org/2000/svg" xmlns:xlink="http://www.w3.org/1999/xlink" x="0px" y="0px"
	 width="19.385px" height="19.825px" viewBox="0 0 19.385 19.825" enable-background="new 0 0 19.385 19.825" xml:space="preserve">
<g>
	<path fill="#CCCCCC" d="M5.713,2.344C7.275,0.781,9.163,0,11.377,0c2.213,0,4.102,0.781,5.664,2.344s2.344,3.451,2.344,5.664
		c0,2.214-0.781,4.102-2.344,5.665s-3.451,2.344-5.664,2.344c-1.27,0-2.458-0.276-3.564-0.83L3.809,19.19v-0.049
		c-0.456,0.455-0.993,0.684-1.611,0.684c-0.619,0-1.14-0.213-1.562-0.635C0.211,18.767,0,18.246,0,17.627s0.228-1.155,0.684-1.611
		H0.635l3.906-3.857C3.76,10.857,3.369,9.473,3.369,8.008C3.369,5.794,4.15,3.906,5.713,2.344z M7.886,11.401
		c0.96,0.961,2.14,1.441,3.54,1.441c1.399,0,2.588-0.48,3.564-1.441c0.977-0.959,1.465-2.14,1.465-3.54
		c0-1.399-0.488-2.58-1.465-3.54c-0.977-0.959-2.165-1.44-3.564-1.44c-1.4,0-2.58,0.481-3.54,1.44c-0.961,0.96-1.44,2.141-1.44,3.54
		C6.445,9.261,6.925,10.442,7.886,11.401z"/>
</g>
</svg>
