<?xml version="1.0" encoding="utf-8"?>
<!-- Generator: Adobe Illustrator 17.0.0, SVG Export Plug-In . SVG Version: 6.00 Build 0)  -->
<!DOCTYPE svg PUBLIC "-//W3C//DTD SVG 1.1//EN" "http://www.w3.org/Graphics/SVG/1.1/DTD/svg11.dtd">
<svg version="1.1" id="Layer_1" xmlns="http://www.w3.org/2000/svg" xmlns:xlink="http://www.w3.org/1999/xlink" x="0px" y="0px"
	 width="16px" height="16px" viewBox="0.5 16.5 16 16" enable-background="new 0.5 16.5 16 16" xml:space="preserve">
<path fill="#F18260" d="M16.312,25.562v-2l-2.039-0.68c-0.122-0.436-0.287-0.855-0.499-1.245l1.009-2.017l-1.414-1.414l-2.023,1.011
	c-0.345-0.186-0.711-0.339-1.092-0.456L9.5,16.5h-2l-0.754,2.262c-0.33,0.101-0.646,0.233-0.949,0.387l-2.239-1.119l-1.414,1.414
	l1.09,2.18c-0.154,0.282-0.281,0.579-0.389,0.886l-2.408,0.803v2l2.278,0.759c0.091,0.337,0.211,0.662,0.357,0.972l-1.105,2.21
	l1.414,1.414l2.045-1.023c0.341,0.204,0.703,0.375,1.083,0.509l0.74,2.22h2l0.685-2.055c0.444-0.109,0.869-0.267,1.268-0.469
	l1.989,0.994l1.414-1.414l-0.943-1.886c0.239-0.404,0.435-0.834,0.575-1.291L16.312,25.562z M8.5,27.5c-1.657,0-3-1.343-3-3
	s1.343-3,3-3s3,1.343,3,3S10.157,27.5,8.5,27.5z"/>
</svg>
