<?xml version="1.0" encoding="utf-8"?>
<!-- Generator: Adobe Illustrator 17.1.0, SVG Export Plug-In . SVG Version: 6.00 Build 0)  -->
<!DOCTYPE svg PUBLIC "-//W3C//DTD SVG 1.1//EN" "http://www.w3.org/Graphics/SVG/1.1/DTD/svg11.dtd">
<svg version="1.1" id="Layer_1" xmlns="http://www.w3.org/2000/svg" xmlns:xlink="http://www.w3.org/1999/xlink" x="0px" y="0px"
	 width="20px" height="20px" viewBox="0 0 20 20" enable-background="new 0 0 20 20" xml:space="preserve">
<circle fill="#F18260" cx="10" cy="10" r="8"/>
<circle fill="#FFFFFF" cx="10" cy="10" r="4"/>
<polygon fill="#F18260" points="9,0 7,4 13,4 11,0 "/>
<polygon fill="#F18260" points="16.4,2.2 12.1,3.6 16.4,7.9 17.8,3.6 "/>
<polygon fill="#F18260" points="20,9 16,7 16,13 20,11 "/>
<polygon fill="#F18260" points="17.8,16.4 16.4,12.1 12.1,16.4 16.4,17.8 "/>
<polygon fill="#F18260" points="11,20 13,16 7,16 9,20 "/>
<polygon fill="#F18260" points="3.6,17.8 7.9,16.4 3.6,12.1 2.2,16.4 "/>
<polygon fill="#F18260" points="0,11 4,13 4,7 0,9 "/>
<polygon fill="#F18260" points="2.2,3.6 3.6,7.9 7.9,3.6 3.6,2.2 "/>
</svg>
