<?xml version="1.0" encoding="utf-8"?>
<!-- Generator: Adobe Illustrator 17.1.0, SVG Export Plug-In . SVG Version: 6.00 Build 0)  -->
<!DOCTYPE svg PUBLIC "-//W3C//DTD SVG 1.1//EN" "http://www.w3.org/Graphics/SVG/1.1/DTD/svg11.dtd">
<svg version="1.1" id="Layer_1" xmlns="http://www.w3.org/2000/svg" xmlns:xlink="http://www.w3.org/1999/xlink" x="0px" y="0px"
	 width="20px" height="20px" viewBox="-297 405 20 20" enable-background="new -297 405 20 20" xml:space="preserve">
<path fill="#F18260" d="M-277,416.4v-2.5l-2.6-0.9c-0.2-0.5-0.4-1.1-0.6-1.6l1.3-2.5l-1.8-1.8l-2.5,1.3c-0.4-0.2-0.9-0.4-1.4-0.6
	l-0.9-2.8h-2.5l-0.9,2.9c-0.4,0.1-0.8,0.3-1.2,0.5l-2.8-1.4l-1.8,1.8l1.4,2.7c-0.2,0.4-0.4,0.7-0.5,1.1l-3,1v2.5l2.9,1
	c0.1,0.4,0.3,0.8,0.5,1.2l-1.4,2.8l1.8,1.8l2.6-1.3c0.4,0.3,0.9,0.5,1.4,0.6l0.9,2.8h2.5l0.9-2.6c0.6-0.1,1.1-0.3,1.6-0.6l2.5,1.3
	l1.8-1.8l-1.2-2.4c0.3-0.5,0.5-1.1,0.7-1.6L-277,416.4z M-286.8,418.9c-2.1,0-3.8-1.7-3.8-3.8c0-2.1,1.7-3.8,3.8-3.8
	s3.8,1.7,3.8,3.8C-283.1,417.2-284.8,418.9-286.8,418.9z"/>
</svg>
