<?xml version="1.0" encoding="utf-8"?>
<!-- Generator: Adobe Illustrator 17.1.0, SVG Export Plug-In . SVG Version: 6.00 Build 0)  -->
<!DOCTYPE svg PUBLIC "-//W3C//DTD SVG 1.1//EN" "http://www.w3.org/Graphics/SVG/1.1/DTD/svg11.dtd">
<svg version="1.1" id="Layer_1" xmlns="http://www.w3.org/2000/svg" xmlns:xlink="http://www.w3.org/1999/xlink" x="0px" y="0px"
	 width="20px" height="20px" viewBox="23 23 20 20" enable-background="new 23 23 20 20" xml:space="preserve">
<path fill="#F0815F" d="M43,34v-2l-2.8-1.1c-0.2-0.5-0.4-1-0.6-1.5l1.2-2.8l-1.4-1.4l-2.8,1.2c-0.5-0.3-1-0.5-1.5-0.6L34,23h-2
	l-1.1,2.8c-0.5,0.2-1,0.4-1.5,0.6l-2.8-1.2l-1.4,1.4l1.2,2.8c-0.3,0.5-0.5,1-0.6,1.5L23,32v2l2.8,1.1c0.2,0.5,0.4,1,0.6,1.5
	l-1.2,2.8l1.4,1.4l2.8-1.2c0.5,0.3,1,0.5,1.5,0.6L32,43h2l1.1-2.8c0.5-0.2,1-0.4,1.5-0.6l2.8,1.2l1.4-1.4l-1.2-2.8
	c0.3-0.5,0.5-1,0.6-1.5L43,34z M33,37c-2.2,0-4-1.8-4-4c0-2.2,1.8-4,4-4s4,1.8,4,4C37,35.2,35.2,37,33,37z"/>
</svg>
